<svg id="Capa_1" enable-background="new 0 0 511.993 511.993" height="512" viewBox="0 0 511.993 511.993" width="512" xmlns="http://www.w3.org/2000/svg"><g><path d="m160.206 156.147c2.929-2.929 2.929-7.678 0-10.606l-9.846-9.847c-2.928-2.93-7.677-2.929-10.606-.001-2.929 2.929-2.929 7.678 0 10.606l9.846 9.847c2.928 2.929 7.676 2.93 10.606.001zm-4.583 196.308-9.846 9.846c-2.929 2.929-2.929 7.678 0 10.607 2.928 2.929 7.677 2.93 10.606.001l9.846-9.846c2.929-2.929 2.929-7.678 0-10.607-2.928-2.928-7.677-2.929-10.606-.001zm206.003-216.762-9.847 9.847c-2.929 2.93-2.929 7.678 0 10.607 2.931 2.929 7.678 2.928 10.608 0l9.847-9.847c2.929-2.93 2.929-7.678 0-10.607-2.93-2.928-7.678-2.928-10.608 0zm-5.262 216.762c-2.93-2.928-7.678-2.928-10.607 0-2.929 2.93-2.929 7.678 0 10.608l9.846 9.846c2.931 2.929 7.678 2.928 10.607 0 2.929-2.93 2.929-7.678 0-10.607zm155.629-97.856c0-19.578-9.042-37.84-24.123-49.755l7.933-6.827c10.479-9.02 7.556-25.866-5.192-30.901 3.175-7.159 4.834-14.918 4.834-22.861 0-38.004-37.062-65.402-73.538-53.863-.095-.55 2.184-11.571-8.139-18.316-5.617-3.671-12.524-4.014-18.477-.913l-13.352 6.951c-4.857-26.247-27.891-46.195-55.523-46.195-18.912 0-36.364 9.571-46.731 24.777l-8.399-12.74c-7.227-10.961-23.34-10.99-30.586 0l-8.401 12.743c-10.366-15.207-27.816-24.78-46.729-24.78-27.632 0-50.668 19.947-55.524 46.193l-13.349-6.949c-12.674-6.599-27.69 3.198-26.735 17.471l.12 1.794c-4.544-1.445-9.263-2.339-14.041-2.589-4.133-.248-7.666 2.959-7.883 7.096s2.96 7.666 7.097 7.883c5.533.291 10.968 1.721 15.934 4.136l2.187 32.682c.1 1.49-.816 2.871-2.227 3.358l-55.534 19.176c-8.097-16.867-4.085-37.977 11.681-50.465 3.247-2.571 3.794-7.289 1.223-10.535-2.573-3.248-7.288-3.795-10.536-1.223-13.626 10.793-21.442 26.942-21.442 44.308 0 7.943 1.659 15.702 4.834 22.861-12.755 5.037-15.665 21.886-5.191 30.901l7.93 6.825c-35.021 27.669-31.345 82.242 7.442 104.603-4.036 7.975-1.697 17.734 5.535 23.027-21.021 38.614 8.283 85.177 51.697 83.472l-.804 4.22c-2.781 14.59 12.078 26.26 25.599 20.095l19.042-8.691c7.09 23.398 28.804 40.039 54.046 40.039 15.97 0 31.147-6.884 41.75-18.48l12.258 18.683c7.234 11.026 23.405 11.014 30.629 0l12.26-18.685c10.604 11.597 25.779 18.483 41.749 18.483 25.242 0 46.938-16.648 54.025-40.048l19.063 8.701c13.511 6.168 28.381-5.5 25.599-20.095l-.806-4.23c11.249.425 21.813-2.456 30.764-7.733 3.568-2.103 4.756-6.701 2.652-10.27s-6.704-4.756-10.27-2.652c-7.775 4.582-17.001 6.483-26.057 5.393l-10.364-54.369c-.358-1.881.946-3.681 2.857-3.914l47.156-5.741c7.286 10.966 8.548 24.232 4.865 35.627-1.273 3.941.89 8.169 4.831 9.442 3.917 1.269 8.162-.869 9.442-4.831 4.592-14.213 3.505-30.3-4.179-44.416 7.238-5.297 9.566-15.06 5.535-23.026 19.447-11.211 31.563-31.82 31.563-54.847zm-91.194-147.644c27.594-13.436 59.646 6.808 59.646 37.301 0 6.255-1.403 12.351-4.074 17.915l-55.533-19.177c-1.41-.486-2.325-1.867-2.226-3.356zm-94.382-60.036c21.892 0 39.866 17.043 41.38 38.557l-48.817 25.413c-1.515.786-3.363.307-4.302-1.117l-25.776-39.096c6.801-14.346 21.441-23.757 37.515-23.757zm-140.847 0c16.074 0 30.713 9.411 37.515 23.756l-25.777 39.097c-.938 1.425-2.789 1.903-4.301 1.117l-48.817-25.413c1.514-21.513 19.488-38.557 41.38-38.557zm-149.793 167.961 42.4 36.492c1.42 1.222 1.537 3.356.308 4.728l-37.209 41.547c-32.494-16.604-35.458-61.902-5.499-82.767zm66.287 131.425-10.367 54.381c-24.761 3.028-46.513-16.394-46.513-41.184 0-8.259 2.366-16.08 6.866-22.853l47.155 5.74c1.904.233 3.218 2.027 2.859 3.916zm84.606 110.302c-19.232 0-35.673-13.149-40.228-31.345l46.426-21.19c1.501-.685 3.247-.181 4.152 1.198l22.801 34.751c-7.787 10.32-20.105 16.586-33.151 16.586zm138.646 0c-13.046 0-25.363-6.266-33.152-16.586l22.801-34.751c.906-1.379 2.654-1.885 4.151-1.198l46.427 21.19c-4.554 18.196-20.994 31.345-40.227 31.345zm139.161-135.621-53.51 6.514c-10.512 1.281-17.762 11.212-15.778 21.614l14.08 73.859c.511 2.681-2.202 4.751-4.636 3.64l-79.287-36.188c-8.284-3.779-17.924-1-22.921 6.616l-43.658 66.539c-1.313 2.001-4.233 2.003-5.547 0l-43.658-66.539c-4.979-7.587-14.608-10.409-22.921-6.616l-79.287 36.188c-2.47 1.13-5.141-.995-4.637-3.64l14.081-73.859c1.983-10.402-5.267-20.333-15.78-21.614l-53.508-6.514c-2.683-.326-3.862-3.506-2.07-5.506l44.219-49.373c6.849-7.648 6.086-19.405-1.696-26.104l-61.993-53.355c-1.959-1.686-1.332-4.817 1.081-5.651l68.993-23.824c7.791-2.689 12.848-10.313 12.298-18.537l-3.413-51.003c-.172-2.571 2.52-4.373 4.842-3.164l76.311 39.727c8.354 4.348 18.565 1.697 23.751-6.167l43.392-65.815c1.318-2 4.229-1.987 5.539 0l43.392 65.815c5.185 7.863 15.395 10.516 23.751 6.166l76.313-39.726c2.296-1.194 5.016.562 4.841 3.164l-3.413 51.003c-.551 8.225 4.506 15.848 12.297 18.537l68.993 23.824c2.419.836 3.036 3.969 1.082 5.651l-61.993 53.355c-7.783 6.699-8.545 18.456-1.696 26.104l44.219 49.372c1.788 2.002.609 5.181-2.073 5.507zm6.238-23.336-37.213-41.55c-1.238-1.383-1.102-3.515.308-4.729l42.4-36.492c12.923 9 20.783 23.783 20.783 39.719 0 18.425-10.163 34.817-26.278 43.052zm-214.722 63.555c-4.142 0-7.5 3.358-7.5 7.5v19.651c0 4.143 3.358 7.5 7.5 7.5 4.143 0 7.5-3.357 7.5-7.5v-19.651c0-4.142-3.357-7.5-7.5-7.5zm77.567-115.386c-15.543-5.734-29.92-12.005-32.955-13.342-10.543-7.385-8.433-25.018 7.979-29.962 20.356-6.133 38.455 8.527 38.731 8.755 3.17 2.647 7.888 2.232 10.548-.932 2.665-3.171 2.256-7.902-.915-10.567-.983-.826-24.403-20.137-52.69-11.619-28.706 8.648-33.25 42.945-11.39 57.198 1.964 1.282 23.016 9.936 35.501 14.541 14.379 5.304 21.618 13.99 19.861 23.83-1.657 9.283-11.828 19.148-27.414 19.148-13.589 0-26.736-5.556-35.169-14.86-2.782-3.07-7.525-3.302-10.594-.521s-3.303 7.524-.521 10.594c11.228 12.391 28.531 19.788 46.284 19.788 43.169 0 63.469-53.344 12.744-72.051zm-92.091-59.224c-3.931-1.308-8.176.822-9.482 4.753l-33.641 101.265-35.258-101.574c-1.358-3.914-5.632-5.986-9.545-4.626-3.913 1.358-5.984 5.631-4.626 9.544l39.977 115.17c1.436 4.041 5.268 6.743 9.552 6.743h.071c4.311-.03 8.141-2.794 9.544-6.925l38.16-114.868c1.307-3.931-.821-8.176-4.752-9.482zm14.524-81.978c-4.142 0-7.5 3.357-7.5 7.5v19.651c0 4.143 3.358 7.5 7.5 7.5 4.143 0 7.5-3.357 7.5-7.5v-19.651c0-4.143-3.357-7.5-7.5-7.5z"/></g></svg>